<?xml version="1.0" encoding="utf-8"?>
<svg version="1.1" xmlns="http://www.w3.org/2000/svg" xmlns:xlink="http://www.w3.org/1999/xlink" x="0px"
	 y="0px" viewBox="-277 400.9 40 40" style="enable-background:new -277 400.9 40 40;" xml:space="preserve">
<style type="text/css">
	.st0{fill:rgba(161, 191, 174, 0.99);}
</style>
<g>
	<g>
		<path class="st0" d="M-271.5,417.7c0,1.2,0.1,2.3,0.1,3.5c0,0.5-0.1,1-0.1,1.6c0,0.5,0,1.1,0.1,1.6c0.1,0.4-0.2,0.4-0.4,0.4
			c-0.1,0-0.3-0.2-0.3-0.4c0-0.3,0-0.7,0-1c0-1.2,0-2.4,0-3.6c0-0.6-0.1-1.3-0.2-1.9c0-0.1,0-0.2,0-0.2c0-0.6,0.2-0.8,0.7-0.4
			C-271.5,417.3-271.5,417.5-271.5,417.7C-271.5,417.6-271.5,417.6-271.5,417.7z"/>
	</g>
	<g>
		<path class="st0" d="M-261.6,417.7c0,1.2,0.1,2.3,0.1,3.5c0,0.5-0.1,1-0.1,1.6c0,0.5,0,1.1,0.1,1.6c0.1,0.4-0.2,0.4-0.4,0.4
			c-0.1,0-0.3-0.2-0.3-0.4c0-0.3,0-0.7,0-1c0-1.2,0-2.4,0-3.6c0-0.6-0.1-1.3-0.2-1.9c0-0.1,0-0.2,0-0.2c0-0.6,0.2-0.8,0.7-0.4
			C-261.6,417.3-261.6,417.5-261.6,417.7C-261.6,417.6-261.6,417.6-261.6,417.7z"/>
	</g>
	<g>
		<path class="st0" d="M-251.7,417.7c0,1.2,0.1,2.3,0.1,3.5c0,0.5-0.1,1-0.1,1.6c0,0.5,0,1.1,0.1,1.6c0.1,0.4-0.2,0.4-0.4,0.4
			c-0.1,0-0.3-0.2-0.3-0.4c0-0.3,0-0.7,0-1c0-1.2,0-2.4,0-3.6c0-0.6-0.1-1.3-0.2-1.9c0-0.1,0-0.2,0-0.2c0-0.6,0.2-0.8,0.7-0.4
			C-251.7,417.3-251.7,417.5-251.7,417.7C-251.7,417.6-251.7,417.6-251.7,417.7z"/>
	</g>
	<g>
		<path class="st0" d="M-241.8,417.7c0,1.2,0.1,2.3,0.1,3.5c0,0.5-0.1,1-0.1,1.6c0,0.5,0,1.1,0.1,1.6c0.1,0.4-0.2,0.4-0.4,0.4
			c-0.1,0-0.3-0.2-0.3-0.4c0-0.3,0-0.7,0-1c0-1.2,0-2.4,0-3.6c0-0.6-0.1-1.3-0.2-1.9c0-0.1,0-0.2,0-0.2c0-0.6,0.2-0.8,0.7-0.4
			C-241.9,417.3-241.8,417.5-241.8,417.7C-241.8,417.6-241.8,417.6-241.8,417.7z"/>
	</g>
</g>
</svg>
