<svg id="レイヤー_1" data-name="レイヤー 1" xmlns="http://www.w3.org/2000/svg" width="60" height="60" viewBox="0 0 60 60"><defs><style>.cls-1{fill:#666;}.cls-2{fill:#e6e6e6;}.cls-3{fill:none;stroke:#666;stroke-linecap:round;stroke-linejoin:round;stroke-width:2.16px;}</style></defs><title>ic_tel</title><path class="cls-1" d="M2.5,2.67H31.94A2.1,2.1,0,0,1,34,4.77V55.23a2.1,2.1,0,0,1-2.1,2.1H2.5a2.1,2.1,0,0,1-2.1-2.1V4.77A2.1,2.1,0,0,1,2.5,2.67ZM13,6.87h0a.63.63,0,0,0,.63.63H20.8a.63.63,0,0,0,.63-.63h0a.63.63,0,0,0-.63-.63H13.65A.63.63,0,0,0,13,6.87Zm1.05,46.26A3.15,3.15,0,1,0,17.22,50,3.15,3.15,0,0,0,14.07,53.13Z"/><rect id="path-3" class="cls-2" x="4.61" y="11.08" width="25.23" height="37.85" rx="0.42" ry="0.42"/><path class="cls-3" d="M39.42,33.74a5.29,5.29,0,0,0,0-7.48"/><path class="cls-3" d="M46.26,37.48a10.58,10.58,0,0,0,0-15"/><path class="cls-3" d="M52.32,45a21.16,21.16,0,0,0,0-29.93"/></svg>